<svg id="Layer_1" data-name="Layer 1" xmlns="http://www.w3.org/2000/svg" viewBox="0 0 502.01 504.04"><defs><style>.cls-1{fill:#f3726b;}.cls-2{fill:#eaa730;}.cls-3{fill:#f3b940;}.cls-4{fill:#f0efef;}.cls-5{fill:#fff;}.cls-6{fill:#183b67;}.cls-7{fill:#9ed9db;}.cls-8{fill:#f9cb55;}</style></defs><title>megaphone</title><ellipse class="cls-1" cx="251.84" cy="486.34" rx="143.03" ry="17.7"/><polygon class="cls-2" points="94.56 335.13 89.89 305.23 76.66 304.82 61.78 313.04 69.7 344.72 92.21 391.57 90.67 404.13 98.15 403.92 126.97 378.77 94.56 335.13"/><polygon class="cls-3" points="82.41 305.43 87.07 335.33 119.49 378.98 90.67 404.13 62.22 344.93 54.3 313.25 69.18 305.03 82.41 305.43"/><path class="cls-4" d="M95.81,252.74c8.35,26.91,25.07,47.54,40.31,51.9,38.71-8.73,107.9-15.72,203.45,8.29L301.13,189,127.81,242.81Z" transform="translate(-46.6 0.41)"/><path class="cls-2" d="M95.81,252.74,82,257l-30.43,9.45c9.91,31.93,32.22,54.59,48.71,49.48h0a19.85,19.85,0,0,0,3.5-1.52,208,208,0,0,1,32.39-9.8C120.88,300.28,104.16,279.65,95.81,252.74Z" transform="translate(-46.6 0.41)"/><path class="cls-3" d="M95.81,252.74c-8.35-26.92-6.24-53.39,3.85-65.61a209.86,209.86,0,0,1-32.25,10.26,19.37,19.37,0,0,0-3.74.72h0c-16.49,5.12-22.06,36.43-12.15,68.37L82,257Z" transform="translate(-46.6 0.41)"/><path class="cls-5" d="M99.66,187.13c-10.09,12.22-12.2,38.69-3.85,65.61l32-9.93L301.13,189,262.69,65.13C197.51,139,136.52,172.42,99.66,187.13Z" transform="translate(-46.6 0.41)"/><ellipse class="cls-3" cx="301.13" cy="189.03" rx="71.47" ry="129.73" transform="translate(-89.09 98.13) rotate(-17.24)"/><ellipse class="cls-4" cx="301.13" cy="189.03" rx="62.24" ry="120.5" transform="translate(-89.09 98.13) rotate(-17.24)"/><ellipse class="cls-5" cx="301.13" cy="189.03" rx="62.24" ry="120.5" transform="translate(-89.09 98.13) rotate(-17.24)"/><path class="cls-4" d="M249.65,115.86c-7.24,2.25-13,8.17-16.94,16.6-2,22.23.75,48.51,9,75s20.82,49.73,35.06,66.92c8.06,4.7,16.11,6.34,23.36,4.09,22.76-7.06,30.44-50.26,16.77-94.34S272.42,108.8,249.65,115.86Z" transform="translate(-46.6 0.41)"/><path class="cls-5" d="M278.16,179.22a5.58,5.58,0,0,0-.92.4,54.41,54.41,0,0,1-8.49,2.57c-7.16,1.62-18.3,3-33,1.46a222.56,222.56,0,0,0,6,23.83,218.25,218.25,0,0,0,8.57,23c11.27-9.59,21.24-14.77,28.05-17.48a54,54,0,0,1,8.45-2.69,5.67,5.67,0,0,0,1-.19c4.33-1.35,5.79-9.56,3.19-17.93S282.48,177.88,278.16,179.22Z" transform="translate(-46.6 0.41)"/><path class="cls-3" d="M277.9,196.26c2.6,8.39,7.63,14.29,11.23,13.17s4.41-8.82,1.81-17.21-7.63-14.29-11.23-13.17S275.3,187.87,277.9,196.26Z" transform="translate(-46.6 0.41)"/><polygon class="cls-3" points="353.8 127.48 340.74 104.44 448.45 73.78 455.11 119.63 353.8 127.48"/><polygon class="cls-6" points="359.55 130.62 361.73 169.94 451.69 162.97 465.94 115.17 359.55 130.62"/><polygon class="cls-7" points="340.64 179.22 356.13 210.39 489.21 191.07 497.01 146.6 340.64 179.22"/><polygon class="cls-5" points="369.6 205.87 466.79 200.06 463.42 227.05 397.21 245.48 369.6 205.87"/><path class="cls-5" d="M401.44,129.64a8.72,8.72,0,0,1-3.81-1.47l.6-1.94a9,9,0,0,0,3.49,1.38,11.85,11.85,0,0,0,4.2,0,7.58,7.58,0,0,0,4.24-1.84,3.39,3.39,0,0,0,1-3.06,2.81,2.81,0,0,0-1.16-2,5.46,5.46,0,0,0-2.16-.87,32.56,32.56,0,0,0-3.39-.37,35.1,35.1,0,0,1-4.15-.52,6.62,6.62,0,0,1-2.83-1.34,4.79,4.79,0,0,1-1.61-3.05,5.54,5.54,0,0,1,.36-3.17,6.08,6.08,0,0,1,2.32-2.64,11,11,0,0,1,4.37-1.6,13.61,13.61,0,0,1,3.77-.11A10.36,10.36,0,0,1,410,108l-.46,2a11.21,11.21,0,0,0-3.18-.86,11.37,11.37,0,0,0-3.15.08,7.18,7.18,0,0,0-4.15,1.86,3.52,3.52,0,0,0-1,3.12,2.91,2.91,0,0,0,1.16,2,5.16,5.16,0,0,0,2.22.88c.85.14,2,.27,3.4.37a32,32,0,0,1,4.1.5,6.42,6.42,0,0,1,2.83,1.32,4.73,4.73,0,0,1,1.58,3,5.48,5.48,0,0,1-.37,3.18,6.08,6.08,0,0,1-2.37,2.63,11.54,11.54,0,0,1-4.41,1.59A14.45,14.45,0,0,1,401.44,129.64Z" transform="translate(-46.6 0.41)"/><path class="cls-5" d="M430.81,104.67a7.68,7.68,0,0,1,1.9,11,10.1,10.1,0,0,1-6.24,3.12l-5.89,1,1.19,6.93-2.31.4-3.79-21.94,8.21-1.41A10.1,10.1,0,0,1,430.81,104.67Zm0,9.83a5,5,0,0,0,1-4.32,5.07,5.07,0,0,0-2.43-3.8,7.71,7.71,0,0,0-5.22-.56l-5.83,1,1.89,11,5.83-1A7.69,7.69,0,0,0,430.79,114.5Z" transform="translate(-46.6 0.41)"/><path class="cls-5" d="M456.8,118.65l.35,2-15.51,2.68-3.78-21.94,15-2.59.35,2L440.52,103l1.35,7.8,11.34-2,.34,2-11.34,2,1.4,8.15Z" transform="translate(-46.6 0.41)"/><path class="cls-5" d="M475.35,111.48l-12.22,2.11-1.63,6.31-2.41.42,6.25-23.67,2.29-.39,13.8,20.21-2.44.42Zm-1.17-1.73-7.3-10.88-3.23,12.69Z" transform="translate(-46.6 0.41)"/><path class="cls-5" d="M490.09,104.36l-3.7,5.31,1,5.77-2.32.4-3.78-21.93,2.32-.4,2.28,13.25,10.6-15.47,2.66-.46-7.78,11.57,12.22,10.25-2.76.47Z" transform="translate(-46.6 0.41)"/><path class="cls-5" d="M437,152.15c-1.87-1.35-3.07-3.59-3.6-6.7l-2.17-12.57,2.32-.4L435.69,145c.44,2.54,1.34,4.35,2.7,5.4a6.49,6.49,0,0,0,5.31,1,6.57,6.57,0,0,0,4.69-2.74q1.39-2.17.74-6L447,130.17l2.26-.39,2.16,12.56c.54,3.12.16,5.62-1.14,7.52a8.87,8.87,0,0,1-6.2,3.59A9,9,0,0,1,437,152.15Z" transform="translate(-46.6 0.41)"/><path class="cls-5" d="M471.36,128a6.91,6.91,0,0,1,3.33,5.11,6.83,6.83,0,0,1-1.43,5.9,10.06,10.06,0,0,1-6.24,3.13l-5.89,1,1.19,6.93-2.32.4-3.78-21.94,8.21-1.41A10.1,10.1,0,0,1,471.36,128Zm0,9.83a5,5,0,0,0,1-4.32,5.08,5.08,0,0,0-2.42-3.8,7.75,7.75,0,0,0-5.23-.56l-5.83,1,1.89,11,5.83-1A7.69,7.69,0,0,0,471.34,137.86Z" transform="translate(-46.6 0.41)"/><polygon class="cls-8" points="276.54 60.39 293.16 41.04 281.85 39.21 308.17 17.65 292.26 35.59 305.31 37.83 276.54 60.39"/><polygon class="cls-8" points="336.19 302.1 358.98 313.56 358.03 302.14 385.29 322.49 364.04 311.38 365.01 324.59 336.19 302.1"/><polygon class="cls-8" points="332.81 78.04 370.21 43.22 348.09 37.05 405.3 0 369.63 32.18 395.12 39.55 332.81 78.04"/><polygon class="cls-8" points="360.74 270.33 409.33 286.15 404 263.82 464.14 295.88 418.71 280.29 424.62 306.15 360.74 270.33"/><polygon class="cls-6" points="375.96 188.99 368.74 228.85 473.81 243.23 502.01 198.79 375.96 188.99"/><path class="cls-5" d="M432.73,210.29l-5.47,18.12-1.79.22-9.74-16.22,2-.25,8.43,14.1,4.77-15.74Z" transform="translate(-46.6 0.41)"/><path class="cls-5" d="M435.21,210l1.81-.23,2.14,17.18-1.81.22Z" transform="translate(-46.6 0.41)"/><path class="cls-5" d="M447.52,224.88a8.38,8.38,0,0,1-3.63-2.73,8.71,8.71,0,0,1-1.72-4.32,8.61,8.61,0,0,1,.61-4.61,8.41,8.41,0,0,1,2.84-3.53,9.67,9.67,0,0,1,4.49-1.72,9.49,9.49,0,0,1,4.74.56,8.4,8.4,0,0,1,3.61,2.72,9.17,9.17,0,0,1,1.12,9,8.44,8.44,0,0,1-2.84,3.53,10,10,0,0,1-9.22,1.14Zm8.13-2.44a6.65,6.65,0,0,0,2.26-2.87,7.68,7.68,0,0,0-.91-7.28,6.67,6.67,0,0,0-2.9-2.24,7.91,7.91,0,0,0-7.37.92,6.7,6.7,0,0,0-2.28,2.88,7.54,7.54,0,0,0,.91,7.28,6.68,6.68,0,0,0,2.91,2.23,7.92,7.92,0,0,0,7.38-.92Z" transform="translate(-46.6 0.41)"/><path class="cls-5" d="M463.2,206.49l1.82-.22,1.94,15.6,9.62-1.2.19,1.57-11.43,1.43Z" transform="translate(-46.6 0.41)"/><path class="cls-5" d="M491.74,218.78l.2,1.57-12.15,1.52-2.14-17.18,11.78-1.46.2,1.56-10,1.25.76,6.11,8.88-1.11.19,1.54-8.88,1.11.79,6.38Z" transform="translate(-46.6 0.41)"/><path class="cls-5" d="M508.42,200.86,510.56,218l-1.5.19-12.77-12.56L498,219.6l-1.81.22-2.14-17.17,1.49-.19L508.36,215l-1.73-13.94Z" transform="translate(-46.6 0.41)"/><path class="cls-5" d="M518.89,216a8.26,8.26,0,0,1-3.6-2.73,8.75,8.75,0,0,1-1.73-4.33,8.86,8.86,0,0,1,.61-4.62,8.29,8.29,0,0,1,2.84-3.53,9.54,9.54,0,0,1,4.47-1.71,9.82,9.82,0,0,1,3.61.2,7.4,7.4,0,0,1,3,1.52l-1,1.3a6.87,6.87,0,0,0-5.33-1.4,7.5,7.5,0,0,0-3.59,1.39,6.85,6.85,0,0,0-2.29,2.88,7.47,7.47,0,0,0,.9,7.26,6.91,6.91,0,0,0,2.93,2.23,7.54,7.54,0,0,0,3.82.47,6.81,6.81,0,0,0,4.82-2.7l1.3,1a7.35,7.35,0,0,1-2.53,2.22,10,10,0,0,1-8.2.54Z" transform="translate(-46.6 0.41)"/><path class="cls-5" d="M545.74,212.06l.2,1.57-12.15,1.51L531.65,198l11.78-1.47.2,1.57-10,1.24.76,6.11,8.88-1.11.19,1.55L534.62,207l.79,6.37Z" transform="translate(-46.6 0.41)"/><path class="cls-5" d="M454.44,187.13l.07,1.79-13.88.55-.78-19.62,13.46-.54.07,1.8-11.38.45.27,7,10.15-.4.07,1.77-10.15.4.29,7.29Z" transform="translate(-46.6 0.41)"/><path class="cls-5" d="M475,168.45l.78,19.63-1.71.07-13.25-15.43.63,15.93-2.07.08-.78-19.63,1.71-.06,13.27,15.42L473,168.53Z" transform="translate(-46.6 0.41)"/><path class="cls-5" d="M481.4,168.2l8-.32a11.69,11.69,0,0,1,5.54,1,9.1,9.1,0,0,1,3.84,3.33,10.52,10.52,0,0,1,.41,10.18,9.07,9.07,0,0,1-3.57,3.62,11.69,11.69,0,0,1-5.44,1.47l-8,.31ZM490,185.72a9.45,9.45,0,0,0,4.47-1.21,7.45,7.45,0,0,0,2.89-2.95,8.07,8.07,0,0,0,.9-4.2,8.21,8.21,0,0,0-1.23-4.12,7.51,7.51,0,0,0-3.12-2.72,9.48,9.48,0,0,0-4.55-.84l-5.81.23.64,16Z" transform="translate(-46.6 0.41)"/></svg>