<?xml version="1.0" encoding="utf-8"?>
<!-- Generator: Adobe Illustrator 22.0.0, SVG Export Plug-In . SVG Version: 6.00 Build 0)  -->
<svg version="1.1" id="Layer_1" xmlns="http://www.w3.org/2000/svg" xmlns:xlink="http://www.w3.org/1999/xlink" x="0px" y="0px"
	 viewBox="0 0 90 90" style="enable-background:new 0 0 90 90;" xml:space="preserve">
<style type="text/css">
	.st0{fill:#5B4A81;}
	.st1{fill:#544479;}
	.st2{clip-path:url(#SVGID_2_);}
	.st3{fill:#451A14;}
	.st4{fill:#EAC8AE;}
	.st5{fill:#F2D8BC;}
	.st6{fill:#EAC0A7;}
	.st7{fill:#FFFFFF;}
	.st8{fill:#EA1B3B;}
	.st9{fill:#C5202E;}
</style>
<g id="women_3">
	<g>
		<path class="st0" d="M90,45C90,20.1,69.9,0,45,0S0,20.1,0,45c0,24.9,20.1,45,45,45S90,69.9,90,45z"/>
		<path class="st1" d="M90,45C90,20.1,69.9,0,45,0v90C69.9,90,90,69.9,90,45z"/>
	</g>
	<g>
		<defs>
			<circle id="SVGID_1_" cx="45" cy="45" r="45"/>
		</defs>
		<clipPath id="SVGID_2_">
			<use xlink:href="#SVGID_1_"  style="overflow:visible;"/>
		</clipPath>
		<g class="st2">
			<path class="st3" d="M27.7,37c0,7.5-4.1,7.7-3.8,12.7c0.3,5.5,4.6,5.5,4.6,9.3c0,3.8-4,8.1-0.5,12.2c15.5,0,17,0,17,0V25.1
				L27.7,37z"/>
			<path class="st3" d="M62.3,37c0,7.5,4.1,7.7,3.8,12.7c-0.3,5.5-4.6,5.5-4.6,9.3c0,3.8,4,8.1,0.5,12.2c-15.5,0-17,0-17,0V25.1
				L62.3,37z"/>
			<g>
				<path class="st3" d="M64.8,29.2c0-10.9-8.8-19.7-19.7-19.7c-10.9,0-19.7,8.8-19.7,19.7c0,10.9,8.8,19.7,19.7,19.7
					C56,48.9,64.8,40.1,64.8,29.2z"/>
				<polygon class="st4" points="51.7,71.4 45,90.1 38.5,71.4 38.5,56.9 51.7,56.9 				"/>
				<g>
					<path class="st5" d="M45.1,16.9c-6.4,0-16.5,3.6-16.5,20.7c0,9.8,3.8,14.5,5.2,16.3c1.3,1.6,7.9,6.9,11.3,6.9
						C45.1,43.5,45.1,16.9,45.1,16.9z"/>
					<path class="st5" d="M25.4,41.6c-0.3-2.7,1-5.1,2.9-5.4c1.9-0.3,3.6,1.7,3.9,4.5c0.3,2.7-1,5.1-2.9,5.4
						C27.4,46.3,25.7,44.3,25.4,41.6z"/>
				</g>
				<g>
					<g>
						<g>
							<path class="st6" d="M45,16.9c6.4,0,16.5,3.6,16.5,20.7c0,9.8-3.8,14.5-5.2,16.3c-1.3,1.6-7.9,6.9-11.3,6.9
								C45,43.5,45,16.9,45,16.9z"/>
						</g>
						<g>
							<path class="st6" d="M64.8,41.6c0.3-2.7-1-5.1-2.9-5.4C60,36,58.3,38,58,40.7c-0.3,2.7,1,5.1,2.9,5.4
								C62.8,46.3,64.5,44.3,64.8,41.6z"/>
						</g>
					</g>
				</g>
				<path class="st4" d="M45,90.1v-18c0,0-4.9-1.2-6-5.2c-0.5-1.9-0.5-3.4-0.5-3.4s-10.8,3.6-13.1,7.4c-2,5.9-2.5,19.3-2.5,19.3H45z
					"/>
				<path class="st4" d="M45,90.1v-18c0,0,4.9-1.2,6-5.2c0.5-1.9,0.5-3.4,0.5-3.4s10.8,3.6,13.1,7.4c2,5.9,2.5,19.3,2.5,19.3H45z"/>
				<path class="st7" d="M45.1,54.8c2.5,0,4.5-1.5,4.5-3.4h-9C40.6,53.2,42.6,54.8,45.1,54.8z"/>
				<path class="st8" d="M45,83c0,0-4.7-11.8-6.5-19.6c-1.8,0.7-3.3,1.1-4.4,1.7c-5.3,11.2-5.5,24.9-5.5,24.9H45V83z"/>
				<path class="st9" d="M45.1,83c0,0,4.7-11.8,6.5-19.6c1.8,0.7,3.3,1.1,4.4,1.7c5.3,11.2,5.5,24.9,5.5,24.9H45.1V83z"/>
			</g>
			<path class="st3" d="M44.2,12c-11.7,0-15.2,10.2-15.2,15c-4.2,5.9,0.4,11.2,3.7,13c0-1.1,0-1.5,0-2.9c0-3.8,3.6-7.3,9.1-6.8
				c4.9,0.5,7.9-2.2,10.5-6.9C55.4,17.1,51.4,12,44.2,12z"/>
			<path class="st3" d="M51.7,21.4c0,0,2.7,11.1,10.2,14.8c1.3-10,2.1-7.9,0-13.1c-2.1-5.3-10.2-9.2-10.2-9.2V21.4z"/>
		</g>
	</g>
</g>
</svg>
